<svg width="34" height="34" viewBox="0 0 34 34" fill="none" xmlns="http://www.w3.org/2000/svg">
<g clip-path="url(#clip0_566_283)">
<path d="M24.9293 10.9208C25.904 12.1045 26.3186 13.4471 26.1733 14.9485C26.0279 16.45 25.3634 17.6881 24.1797 18.6628L16.0742 25.3374C15.225 26.0366 14.2491 26.3329 13.1465 26.2261C12.0438 26.1193 11.1429 25.6414 10.4436 24.7922C9.74439 23.9431 9.44815 22.9672 9.5549 21.8645C9.66166 20.7619 10.1396 19.861 10.9888 19.1617L18.3224 13.1228C18.8627 12.6778 19.4731 12.4883 20.1535 12.5542C20.8338 12.62 21.3965 12.9231 21.8414 13.4635C22.2864 14.0039 22.476 14.6142 22.4101 15.2946C22.3442 15.975 22.0411 16.5376 21.5007 16.9826L14.1671 23.0215L13.2136 21.8636L20.5472 15.8247C20.7659 15.6445 20.8884 15.4194 20.9146 15.1491C20.9407 14.8788 20.8637 14.6348 20.6835 14.417C20.5034 14.1983 20.2782 14.0759 20.0079 14.0497C19.7377 14.0235 19.4937 14.1005 19.2759 14.2807L11.9423 20.3196C11.4019 20.7646 11.0988 21.3273 11.0329 22.0076C10.967 22.688 11.1566 23.2984 11.6016 23.8387C12.0465 24.3791 12.6092 24.6822 13.2896 24.7481C13.9699 24.814 14.5803 24.6244 15.1206 24.1794L23.2262 17.5049C24.0754 16.8056 24.5533 15.9047 24.6601 14.802C24.7668 13.6994 24.4706 12.7235 23.7713 11.8743C23.0721 11.0252 22.1712 10.5472 21.0685 10.4405C19.9659 10.3337 18.99 10.63 18.1408 11.3292L10.0353 18.0038L9.08174 16.8458L17.1873 10.1713C18.371 9.19656 19.7135 8.78189 21.215 8.92726C22.7165 9.07263 23.9546 9.73715 24.9293 10.9208Z" fill="black"/>
</g>
<defs>
<clipPath id="clip0_566_283">
<rect width="24" height="24" fill="white" transform="translate(15.2563 33.7831) rotate(-129.47)"/>
</clipPath>
</defs>
</svg>
