<svg width="24" height="24" viewBox="0 0 24 24" fill="none" xmlns="http://www.w3.org/2000/svg">
<path d="M6.78839 2.26715L8.21125 1.83858C8.85895 1.64317 9.55564 1.69015 10.1712 1.97075C10.7868 2.25134 11.2793 2.74637 11.5567 3.36344L12.4421 5.33315C12.6807 5.86378 12.7472 6.45579 12.6322 7.0261C12.5172 7.59642 12.2265 8.11643 11.801 8.51315L10.2538 9.95572C10.2347 9.97358 10.219 9.99479 10.2075 10.0183C10.0455 10.3492 10.2915 11.2329 11.0621 12.5683C11.9313 14.0734 12.6024 14.6683 12.9135 14.5766L14.9441 13.9552C15.5002 13.7853 16.0955 13.7938 16.6466 13.9793C17.1976 14.1648 17.6768 14.5182 18.017 14.9897L19.2753 16.7323C19.6703 17.2794 19.8533 17.9514 19.7902 18.6233C19.7272 19.2952 19.4223 19.9214 18.9324 20.3854L17.8498 21.4097C17.4734 21.7663 17.0162 22.0265 16.5174 22.1682C16.0186 22.3098 15.4929 22.3287 14.9853 22.2232C11.9707 21.5957 9.26982 19.1683 6.85954 14.994C4.44839 10.8172 3.69668 7.26001 4.66525 4.33458C4.82739 3.84481 5.10503 3.40127 5.47472 3.04142C5.84441 2.68158 6.29443 2.41601 6.78839 2.26715ZM7.16039 3.49801C6.864 3.58728 6.59345 3.74659 6.37161 3.96247C6.14977 4.17834 5.98314 4.44445 5.88582 4.73829C5.05097 7.25915 5.72725 10.4614 7.97297 14.3512C10.217 18.2383 12.6495 20.424 15.2467 20.964C15.5514 21.0274 15.867 21.016 16.1664 20.931C16.4658 20.8459 16.7402 20.6896 16.9661 20.4754L18.0478 19.452C18.3117 19.2022 18.476 18.865 18.51 18.5032C18.5441 18.1414 18.4456 17.7795 18.233 17.4849L16.9747 15.7414C16.7915 15.4876 16.5336 15.2974 16.2369 15.1974C15.9403 15.0975 15.6198 15.0929 15.3204 15.1843L13.2847 15.8074C12.1584 16.1426 11.099 15.204 9.94868 13.2103C8.97411 11.5234 8.63639 10.3046 9.05297 9.45344C9.13354 9.28887 9.24325 9.14058 9.37697 9.01544L10.9241 7.57287C11.1533 7.35925 11.3099 7.07921 11.3719 6.77206C11.4338 6.46491 11.398 6.14607 11.2695 5.86029L10.3841 3.89144C10.2348 3.55909 9.96954 3.29246 9.63798 3.14136C9.30643 2.99025 8.93121 2.96499 8.58239 3.07029L7.15954 3.49887L7.16039 3.49801Z" fill="black"/>
</svg>
