<svg width="80" height="50" viewBox="0 0 80 50" fill="none" xmlns="http://www.w3.org/2000/svg">
<rect width="80" height="50" rx="25" fill="#DD1D1D"/>
<path d="M51.4691 26.1589L51.0961 27.5973C50.9265 28.2523 50.5245 28.8231 49.9649 29.2034C49.4053 29.5836 48.7265 29.7472 48.0551 29.6637L45.9121 29.3969C45.3347 29.3251 44.7944 29.0743 44.3668 28.6798C43.9392 28.2852 43.6459 27.7667 43.528 27.197L43.0991 25.1256C43.0938 25.1 43.0839 25.0756 43.0697 25.0535C42.8712 24.7432 41.9883 24.4943 40.4469 24.459C38.7093 24.4197 37.8523 24.6841 37.769 24.9976L37.2451 27.0555C37.1013 27.6189 36.7848 28.1231 36.34 28.4976C35.8952 28.8721 35.3444 29.098 34.7647 29.1436L32.622 29.3135C31.9493 29.3668 31.2801 29.174 30.7387 28.7711C30.1974 28.3681 29.8207 27.7824 29.6787 27.1226L29.3659 25.6655C29.2568 25.1586 29.2719 24.6328 29.4101 24.133C29.5482 23.6332 29.8052 23.1742 30.1591 22.7952C32.2613 20.5454 35.7386 19.4987 40.5575 19.6078C45.3791 19.7176 48.8091 20.9233 50.8056 23.2707C51.1398 23.6637 51.3746 24.1313 51.49 24.6342C51.6054 25.137 51.5985 25.6595 51.4691 26.1589ZM50.2241 25.8373C50.3018 25.5377 50.3062 25.2237 50.237 24.922C50.1678 24.6203 50.027 24.3397 49.8265 24.1039C48.1062 22.0809 45.0187 20.9951 40.5284 20.8932C36.0412 20.7911 32.9098 21.7342 31.0991 23.6728C30.8867 23.9003 30.7324 24.1758 30.6496 24.4758C30.5667 24.7759 30.5577 25.0915 30.6233 25.3958L30.9358 26.8517C31.0122 27.207 31.2149 27.5225 31.5064 27.7396C31.7979 27.9567 32.1582 28.0605 32.5205 28.0319L34.6639 27.8625C34.9759 27.8379 35.2725 27.7163 35.512 27.5147C35.7515 27.3132 35.9219 27.0417 35.9994 26.7384L36.5245 24.6753C36.8233 23.5388 38.1756 23.1212 40.4768 23.1741C42.4244 23.2177 43.6414 23.5623 44.1522 24.3605C44.251 24.5148 44.3207 24.6856 44.3581 24.8649L44.787 26.9363C44.8504 27.2431 45.0083 27.5224 45.2386 27.7349C45.4689 27.9474 45.7599 28.0825 46.0708 28.1211L48.2131 28.3874C48.5747 28.4325 48.9403 28.3444 49.2417 28.1396C49.543 27.9348 49.7596 27.6273 49.8508 27.2745L50.2238 25.8361L50.2241 25.8373Z" fill="white"/>
</svg>
