<svg width="40" height="40" viewBox="0 0 40 40" fill="none" xmlns="http://www.w3.org/2000/svg">
<path fill-rule="evenodd" clip-rule="evenodd" d="M16.2968 35.0001H23.7035C28.9052 35.0001 31.5068 35.0001 33.3752 33.7751C34.1813 33.2467 34.8756 32.5649 35.4185 31.7684C36.6668 29.9351 36.6668 27.3801 36.6668 22.2734C36.6668 17.1651 36.6668 14.6117 35.4185 12.7784C34.8756 11.9819 34.1813 11.3001 33.3752 10.7717C32.1752 9.98341 30.6718 9.70174 28.3702 9.60174C27.2718 9.60174 26.3268 8.78508 26.1118 7.72674C25.9475 6.95153 25.5206 6.2568 24.9032 5.76C24.2859 5.26319 23.5159 4.99476 22.7235 5.00008H17.2768C15.6302 5.00008 14.2118 6.14174 13.8885 7.72674C13.6735 8.78508 12.7285 9.60174 11.6302 9.60174C9.33016 9.70174 7.82683 9.98508 6.62516 10.7717C5.81953 11.3002 5.12579 11.982 4.5835 12.7784C3.3335 14.6117 3.3335 17.1651 3.3335 22.2734C3.3335 27.3801 3.3335 29.9334 4.58183 31.7684C5.12183 32.5617 5.81516 33.2434 6.62516 33.7751C8.4935 35.0001 11.0952 35.0001 16.2968 35.0001ZM20.0002 15.4551C16.1652 15.4551 13.0552 18.5067 13.0552 22.2717C13.0552 26.0384 16.1652 29.0901 20.0002 29.0901C23.8352 29.0901 26.9452 26.0384 26.9452 22.2734C26.9452 18.5067 23.8352 15.4551 20.0002 15.4551ZM20.0002 18.1817C17.7002 18.1817 15.8335 20.0134 15.8335 22.2734C15.8335 24.5317 17.7002 26.3634 20.0002 26.3634C22.3002 26.3634 24.1668 24.5317 24.1668 22.2734C24.1668 20.0134 22.3002 18.1817 20.0002 18.1817ZM27.8702 16.8184C27.8702 16.0651 28.4918 15.4551 29.2602 15.4551H31.1102C31.8768 15.4551 32.5002 16.0651 32.5002 16.8184C32.4966 17.1832 32.3484 17.5318 32.0881 17.7874C31.8278 18.043 31.4767 18.1849 31.1118 18.1817H29.2602C29.0794 18.1835 28.9 18.1496 28.7323 18.0821C28.5646 18.0145 28.4119 17.9146 28.2828 17.788C28.1537 17.6614 28.0508 17.5106 27.98 17.3442C27.9092 17.1779 27.8719 16.9992 27.8702 16.8184Z" fill="black"/>
</svg>
