<svg width="40" height="40" viewBox="0 0 40 40" fill="none" xmlns="http://www.w3.org/2000/svg">
<g opacity="0.2" clip-path="url(#clip0_112_653)">
<path fill-rule="evenodd" clip-rule="evenodd" d="M24.7066 7.61167C24.9517 7.24733 25.0432 6.80098 24.961 6.36961C24.8789 5.93825 24.6298 5.55672 24.268 5.30795C23.9061 5.05918 23.4607 4.96326 23.0286 5.04104C22.5964 5.11882 22.2124 5.36401 21.96 5.72333L20 8.57333L18.04 5.72333C17.917 5.54056 17.759 5.38398 17.5752 5.26263C17.3913 5.14129 17.1852 5.0576 16.9688 5.0164C16.7524 4.97519 16.53 4.9773 16.3145 5.02258C16.0989 5.06787 15.8944 5.15545 15.7129 5.28024C15.5314 5.40504 15.3764 5.56459 15.2569 5.74965C15.1374 5.93472 15.0558 6.14163 15.0168 6.35843C14.9778 6.57524 14.9821 6.79762 15.0296 7.01273C15.077 7.22784 15.1667 7.43141 15.2933 7.61167L17.9766 11.515L4.12496 31.6667H3.33329C2.89127 31.6667 2.46734 31.8423 2.15478 32.1548C1.84222 32.4674 1.66663 32.8913 1.66663 33.3333C1.66663 33.7754 1.84222 34.1993 2.15478 34.5118C2.46734 34.8244 2.89127 35 3.33329 35H36.6666C37.1087 35 37.5326 34.8244 37.8451 34.5118C38.1577 34.1993 38.3333 33.7754 38.3333 33.3333C38.3333 32.8913 38.1577 32.4674 37.8451 32.1548C37.5326 31.8423 37.1087 31.6667 36.6666 31.6667H35.8766L22.0216 11.5167L24.7066 7.61167ZM26.6433 31.6667H31.8316L20 14.4567L8.16829 31.6667H13.3583L18.6166 24.0717C18.7716 23.8482 18.9783 23.6656 19.2192 23.5395C19.4602 23.4134 19.728 23.3475 20 23.3475C20.2719 23.3475 20.5398 23.4134 20.7807 23.5395C21.0216 23.6656 21.2283 23.8482 21.3833 24.0717L26.6416 31.6667H26.6433ZM17.4116 31.6667H22.5883L20 27.9283L17.4116 31.6667Z" fill="white"/>
</g>
<defs>
<clipPath id="clip0_112_653">
<rect width="40" height="40" fill="white"/>
</clipPath>
</defs>
</svg>
