<svg width="21" height="21" viewBox="0 0 21 21" fill="none" xmlns="http://www.w3.org/2000/svg">
<path d="M8.73307 5.4H12.0664C12.0664 4.95798 11.8908 4.53405 11.5783 4.22149C11.2657 3.90893 10.8418 3.73334 10.3997 3.73334C9.95771 3.73334 9.53379 3.90893 9.22123 4.22149C8.90867 4.53405 8.73307 4.95798 8.73307 5.4ZM7.06641 5.4C7.06641 4.51595 7.4176 3.6681 8.04272 3.04298C8.66784 2.41786 9.51569 2.06667 10.3997 2.06667C11.2838 2.06667 12.1316 2.41786 12.7568 3.04298C13.3819 3.6681 13.7331 4.51595 13.7331 5.4H17.8997C18.1208 5.4 18.3327 5.4878 18.489 5.64408C18.6453 5.80036 18.7331 6.01232 18.7331 6.23334C18.7331 6.45435 18.6453 6.66631 18.489 6.82259C18.3327 6.97887 18.1208 7.06667 17.8997 7.06667H17.1647L16.4264 15.6833C16.3554 16.5154 15.9747 17.2905 15.3596 17.8553C14.7445 18.4201 13.9398 18.7334 13.1047 18.7333H7.69474C6.85966 18.7334 6.05497 18.4201 5.43986 17.8553C4.82476 17.2905 4.44405 16.5154 4.37307 15.6833L3.63474 7.06667H2.89974C2.67873 7.06667 2.46676 6.97887 2.31048 6.82259C2.1542 6.66631 2.06641 6.45435 2.06641 6.23334C2.06641 6.01232 2.1542 5.80036 2.31048 5.64408C2.46676 5.4878 2.67873 5.4 2.89974 5.4H7.06641ZM12.8997 10.4C12.8997 10.179 12.8119 9.96703 12.6557 9.81075C12.4994 9.65447 12.2874 9.56667 12.0664 9.56667C11.8454 9.56667 11.6334 9.65447 11.4772 9.81075C11.3209 9.96703 11.2331 10.179 11.2331 10.4V13.7333C11.2331 13.9544 11.3209 14.1663 11.4772 14.3226C11.6334 14.4789 11.8454 14.5667 12.0664 14.5667C12.2874 14.5667 12.4994 14.4789 12.6557 14.3226C12.8119 14.1663 12.8997 13.9544 12.8997 13.7333V10.4ZM8.73307 9.56667C8.95409 9.56667 9.16605 9.65447 9.32233 9.81075C9.47861 9.96703 9.56641 10.179 9.56641 10.4V13.7333C9.56641 13.9544 9.47861 14.1663 9.32233 14.3226C9.16605 14.4789 8.95409 14.5667 8.73307 14.5667C8.51206 14.5667 8.3001 14.4789 8.14382 14.3226C7.98754 14.1663 7.89974 13.9544 7.89974 13.7333V10.4C7.89974 10.179 7.98754 9.96703 8.14382 9.81075C8.3001 9.65447 8.51206 9.56667 8.73307 9.56667ZM6.03307 15.5417C6.06858 15.9578 6.25905 16.3455 6.56678 16.6279C6.87451 16.9103 7.27706 17.0669 7.69474 17.0667H13.1047C13.5221 17.0665 13.9243 16.9097 14.2317 16.6274C14.539 16.345 14.7293 15.9576 14.7647 15.5417L15.4914 7.06667H5.30807L6.03307 15.5417Z" fill="#EBEAF1"/>
</svg>
