<svg width="25" height="25" viewBox="0 0 25 25" fill="none" xmlns="http://www.w3.org/2000/svg">
<path d="M11.7188 8.17398C10.7437 8.44065 10.1562 9.18961 10.1562 9.89586C10.1562 10.6021 10.7437 11.3511 11.7188 11.6167V8.17398ZM13.2812 13.3834V16.825C14.2562 16.5594 14.8438 15.8104 14.8438 15.1042C14.8438 14.3979 14.2562 13.649 13.2812 13.3834Z" fill="black"/>
<path fill-rule="evenodd" clip-rule="evenodd" d="M22.9167 12.5C22.9167 18.2531 18.2532 22.9167 12.5 22.9167C6.74692 22.9167 2.08337 18.2531 2.08337 12.5C2.08337 6.74689 6.74692 2.08334 12.5 2.08334C18.2532 2.08334 22.9167 6.74689 22.9167 12.5ZM12.5 5.46876C12.7072 5.46876 12.906 5.55107 13.0525 5.69758C13.199 5.8441 13.2813 6.04281 13.2813 6.25001V6.58022C14.9792 6.88439 16.4063 8.16043 16.4063 9.89584C16.4063 10.103 16.324 10.3018 16.1775 10.4483C16.031 10.5948 15.8322 10.6771 15.625 10.6771C15.4178 10.6771 15.2191 10.5948 15.0726 10.4483C14.9261 10.3018 14.8438 10.103 14.8438 9.89584C14.8438 9.18959 14.2563 8.44064 13.2813 8.17397V11.7886C14.9792 12.0927 16.4063 13.3688 16.4063 15.1042C16.4063 16.8396 14.9792 18.1156 13.2813 18.4198V18.75C13.2813 18.9572 13.199 19.1559 13.0525 19.3024C12.906 19.449 12.7072 19.5313 12.5 19.5313C12.2928 19.5313 12.0941 19.449 11.9476 19.3024C11.8011 19.1559 11.7188 18.9572 11.7188 18.75V18.4198C10.0209 18.1156 8.59379 16.8396 8.59379 15.1042C8.59379 14.897 8.6761 14.6983 8.82261 14.5518C8.96913 14.4052 9.16784 14.3229 9.37504 14.3229C9.58224 14.3229 9.78096 14.4052 9.92747 14.5518C10.074 14.6983 10.1563 14.897 10.1563 15.1042C10.1563 15.8104 10.7438 16.5594 11.7188 16.825V13.2115C10.0209 12.9073 8.59379 11.6313 8.59379 9.89584C8.59379 8.16043 10.0209 6.88439 11.7188 6.58022V6.25001C11.7188 6.04281 11.8011 5.8441 11.9476 5.69758C12.0941 5.55107 12.2928 5.46876 12.5 5.46876Z" fill="black"/>
</svg>
