<svg width="16" height="16" viewBox="0 0 16 16" fill="none" xmlns="http://www.w3.org/2000/svg">
<path d="M4.6665 4.66667H3.99984C3.64622 4.66667 3.30708 4.80714 3.05703 5.05719C2.80698 5.30724 2.6665 5.64638 2.6665 6V12C2.6665 12.3536 2.80698 12.6928 3.05703 12.9428C3.30708 13.1929 3.64622 13.3333 3.99984 13.3333H9.99984C10.3535 13.3333 10.6926 13.1929 10.9426 12.9428C11.1927 12.6928 11.3332 12.3536 11.3332 12V11.3333" stroke="black" stroke-linecap="round" stroke-linejoin="round"/>
<path d="M10.6667 3.33333L12.6667 5.33333M13.59 4.39C13.8526 4.12744 14.0001 3.77132 14.0001 3.4C14.0001 3.02868 13.8526 2.67256 13.59 2.41C13.3274 2.14744 12.9713 1.99993 12.6 1.99993C12.2287 1.99993 11.8726 2.14744 11.61 2.41L6 8V10H8L13.59 4.39Z" stroke="black" stroke-linecap="round" stroke-linejoin="round"/>
</svg>
