<svg width="20" height="21" viewBox="0 0 20 21" fill="none" xmlns="http://www.w3.org/2000/svg">
<path d="M9.29663 16.2621L9.29555 16.2611C7.13497 14.3019 5.40208 12.7266 4.20057 11.2566C3.0073 9.79672 2.41675 8.5326 2.41675 7.20833C2.41675 5.04844 4.09673 3.375 6.25008 3.375C7.47335 3.375 8.65984 3.94834 9.43095 4.8468L10.0001 5.50991L10.5692 4.8468C11.3403 3.94834 12.5268 3.375 13.7501 3.375C15.9034 3.375 17.5834 5.04844 17.5834 7.20833C17.5834 8.5326 16.9929 9.79672 15.7996 11.2566C14.5981 12.7266 12.8652 14.3019 10.7046 16.2611L10.7035 16.2621L10.0001 16.9024L9.29663 16.2621Z" stroke="#EBEAF1" stroke-width="1.5"/>
</svg>
