<svg width="40" height="40" viewBox="0 0 40 40" fill="none" xmlns="http://www.w3.org/2000/svg">
<g opacity="0.2">
<path d="M21.0125 5.375C20.7299 5.13458 20.371 5.00256 20 5.00256C19.629 5.00256 19.2701 5.13458 18.9875 5.375L6.8 15.735C6.62744 15.8818 6.48887 16.0644 6.3939 16.2701C6.29893 16.4758 6.24983 16.6997 6.25 16.9262V33.125C6.25 33.2908 6.31585 33.4497 6.43306 33.5669C6.55027 33.6841 6.70924 33.75 6.875 33.75H13.125C13.2908 33.75 13.4497 33.6841 13.5669 33.5669C13.6842 33.4497 13.75 33.2908 13.75 33.125V24.375C13.75 23.5462 14.0792 22.7513 14.6653 22.1653C15.2513 21.5792 16.0462 21.25 16.875 21.25H23.13C23.5404 21.25 23.9467 21.3308 24.3259 21.4879C24.705 21.6449 25.0495 21.8751 25.3397 22.1653C25.6299 22.4555 25.8601 22.8 26.0171 23.1791C26.1742 23.5583 26.255 23.9646 26.255 24.375V33.125C26.255 33.2908 26.3208 33.4497 26.4381 33.5669C26.5553 33.6841 26.7142 33.75 26.88 33.75H33.125C33.2908 33.75 33.4497 33.6841 33.5669 33.5669C33.6842 33.4497 33.75 33.2908 33.75 33.125V16.925C33.75 16.6986 33.7008 16.475 33.6058 16.2695C33.5109 16.0641 33.3724 15.8817 33.2 15.735L21.0125 5.375ZM17.3688 3.47125C18.1033 2.84683 19.0359 2.50398 20 2.50398C20.9641 2.50398 21.8967 2.84683 22.6312 3.47125L34.8187 13.83C35.2673 14.2114 35.6277 14.6857 35.8748 15.2201C36.122 15.7545 36.25 16.3362 36.25 16.925V33.125C36.25 33.9538 35.9208 34.7487 35.3347 35.3347C34.7487 35.9208 33.9538 36.25 33.125 36.25H26.88C26.0512 36.25 25.2563 35.9208 24.6703 35.3347C24.0842 34.7487 23.755 33.9538 23.755 33.125V24.375C23.755 24.2092 23.6892 24.0503 23.5719 23.9331C23.4547 23.8158 23.2958 23.75 23.13 23.75H16.875C16.7092 23.75 16.5503 23.8158 16.4331 23.9331C16.3158 24.0503 16.25 24.2092 16.25 24.375V33.125C16.25 33.9538 15.9208 34.7487 15.3347 35.3347C14.7487 35.9208 13.9538 36.25 13.125 36.25H6.875C6.0462 36.25 5.25134 35.9208 4.66529 35.3347C4.07924 34.7487 3.75 33.9538 3.75 33.125V16.925C3.75003 16.3362 3.87805 15.7545 4.12518 15.2201C4.37231 14.6857 4.73265 14.2114 5.18125 13.83L17.3688 3.47125Z" fill="white"/>
</g>
</svg>
