<svg width="40" height="40" viewBox="0 0 40 40" fill="none" xmlns="http://www.w3.org/2000/svg">
<g opacity="0.2" clip-path="url(#clip0_112_663)">
<path d="M30.2334 37.2C30.6167 38.0333 30.2334 39.0333 29.4 39.4C28.5333 39.7833 27.6167 39.9833 26.6667 39.9833C22.9834 39.9833 20 37 20 33.3167V29.9833C20 29.0667 20.75 28.3167 21.6667 28.3167C22.5833 28.3167 23.3333 29.0667 23.3333 29.9833V33.3167C23.3333 35.15 24.8334 36.65 26.6667 36.65C27.15 36.65 27.6 36.55 28.0334 36.35C28.8667 35.9667 29.8667 36.35 30.2334 37.1833V37.2ZM27.1 6.91667L28.3334 5.68333V16.6667C28.3334 17.5833 29.0834 18.3333 30 18.3333C30.9167 18.3333 31.6667 17.5833 31.6667 16.6667V1.66667C31.6667 0.999999 31.2667 0.383332 30.6334 0.133332C30 -0.133334 29.3 0.0166658 28.8167 0.499999L24.75 4.56667C24.1 5.21667 24.1 6.26667 24.75 6.91667C25.4 7.56667 26.45 7.56667 27.1 6.91667ZM13.9667 21.7833C13.3334 21.5167 12.6334 21.6667 12.15 22.15L8.08335 26.2167C7.43335 26.8667 7.43335 27.9167 8.08335 28.5667C8.73335 29.2167 9.78335 29.2167 10.4334 28.5667L11.6667 27.3333V38.3167C11.6667 39.2333 12.4167 39.9833 13.3333 39.9833C14.25 39.9833 15 39.2333 15 38.3167V23.3333C15 22.6667 14.6 22.05 13.9667 21.8V21.7833ZM39.5 39.5C39.1667 39.8333 38.75 39.9833 38.3167 39.9833C37.8834 39.9833 37.4667 39.8167 37.1334 39.5L0.48335 2.85C-0.16665 2.2 -0.16665 1.13333 0.48335 0.483332C1.13335 -0.166668 2.20002 -0.166668 2.85002 0.483332L7.01668 4.65C7.88335 1.96667 10.3667 -8.9407e-07 13.3333 -8.9407e-07C17.0167 -8.9407e-07 20 2.98333 20 6.66667V11.6667C20 13.2833 19.4167 14.8167 18.3833 16.0167L24.4333 22.0667C25.15 21.8167 25.9 21.6667 26.6667 21.6667C30.35 21.6667 33.3334 24.65 33.3334 28.3333V30.9833L39.5167 37.1667C40.1667 37.8167 40.1667 38.8667 39.5167 39.5167L39.5 39.5ZM10 7.65L16 13.65C16.4167 13.0833 16.6667 12.4 16.6667 11.6833V6.68333C16.6667 4.85 15.1667 3.35 13.3333 3.35C11.5 3.35 10 4.85 10 6.68333V7.66667V7.65Z" fill="white"/>
</g>
<defs>
<clipPath id="clip0_112_663">
<rect width="40" height="40" fill="white"/>
</clipPath>
</defs>
</svg>
