<svg width="15" height="15" viewBox="0 0 15 15" fill="none" xmlns="http://www.w3.org/2000/svg">
<path d="M14.375 5V11.25C14.375 11.9375 13.8125 12.5 13.125 12.5H3.125C2.78125 12.5 2.5 12.2188 2.5 11.875C2.5 11.5312 2.78125 11.25 3.125 11.25H13.125V5C13.125 4.65625 13.4062 4.375 13.75 4.375C14.0938 4.375 14.375 4.65625 14.375 5ZM2.5 10C1.4625 10 0.625 9.1625 0.625 8.125V4.375C0.625 3.3375 1.4625 2.5 2.5 2.5H10C11.0375 2.5 11.875 3.3375 11.875 4.375V8.75C11.875 9.4375 11.3125 10 10.625 10H2.5ZM4.375 6.25C4.375 7.2875 5.2125 8.125 6.25 8.125C7.2875 8.125 8.125 7.2875 8.125 6.25C8.125 5.2125 7.2875 4.375 6.25 4.375C5.2125 4.375 4.375 5.2125 4.375 6.25Z" fill="#8B7FF8"/>
</svg>
