<svg width="26" height="26" viewBox="0 0 26 26" fill="none" xmlns="http://www.w3.org/2000/svg">
<path d="M12.9996 18.2C12.8272 18.2 12.6619 18.1315 12.54 18.0096C12.4181 17.8877 12.3496 17.7224 12.3496 17.55V10.0191L10.2098 12.1602C10.0878 12.2823 9.92222 12.3508 9.74961 12.3508C9.577 12.3508 9.41146 12.2823 9.28941 12.1602C9.16736 12.0382 9.09879 11.8726 9.09879 11.7C9.09879 11.5274 9.16736 11.3619 9.28941 11.2398L12.5394 7.98981C12.5998 7.92928 12.6715 7.88125 12.7505 7.84849C12.8295 7.81572 12.9141 7.79885 12.9996 7.79885C13.0851 7.79885 13.1698 7.81572 13.2487 7.84849C13.3277 7.88125 13.3994 7.92928 13.4598 7.98981L16.7098 11.2398C16.8319 11.3619 16.9004 11.5274 16.9004 11.7C16.9004 11.8726 16.8319 12.0382 16.7098 12.1602C16.5878 12.2823 16.4222 12.3508 16.2496 12.3508C16.077 12.3508 15.9115 12.2823 15.7894 12.1602L13.6496 10.0191V17.55C13.6496 17.7224 13.5811 17.8877 13.4592 18.0096C13.3373 18.1315 13.172 18.2 12.9996 18.2ZM2.59961 7.80001C2.59961 7.11045 2.87354 6.44913 3.36113 5.96153C3.84873 5.47394 4.51005 5.20001 5.19961 5.20001H20.7996C21.4892 5.20001 22.1505 5.47394 22.6381 5.96153C23.1257 6.44913 23.3996 7.11045 23.3996 7.80001V18.2C23.3996 18.8896 23.1257 19.5509 22.6381 20.0385C22.1505 20.5261 21.4892 20.8 20.7996 20.8H5.19961C4.51005 20.8 3.84873 20.5261 3.36113 20.0385C2.87354 19.5509 2.59961 18.8896 2.59961 18.2V7.80001ZM5.19961 6.50001C4.85483 6.50001 4.52417 6.63698 4.28037 6.88077C4.03657 7.12457 3.89961 7.45523 3.89961 7.80001V18.2C3.89961 18.5448 4.03657 18.8755 4.28037 19.1193C4.52417 19.363 4.85483 19.5 5.19961 19.5H20.7996C21.1444 19.5 21.4751 19.363 21.7188 19.1193C21.9626 18.8755 22.0996 18.5448 22.0996 18.2V7.80001C22.0996 7.45523 21.9626 7.12457 21.7188 6.88077C21.4751 6.63698 21.1444 6.50001 20.7996 6.50001H5.19961Z" fill="white"/>
</svg>
