<svg width="20" height="20" viewBox="0 0 20 20" fill="none" xmlns="http://www.w3.org/2000/svg">
<path d="M1.45935 2.9114C1.26292 2.17569 2.01864 1.54712 2.70649 1.87497L18.0615 9.19569C18.7401 9.51854 18.7401 10.4843 18.0615 10.8071L2.70721 18.1285C2.01935 18.4557 1.26364 17.8271 1.46007 17.0914L3.35721 10.0014L1.45935 2.9114ZM4.32221 10.5371L2.59507 16.9943L17.2629 10.0014L2.59507 3.00854L4.32221 9.46569H12.3215C12.4636 9.46569 12.5998 9.52213 12.7003 9.62259C12.8008 9.72306 12.8572 9.85932 12.8572 10.0014C12.8572 10.1435 12.8008 10.2797 12.7003 10.3802C12.5998 10.4807 12.4636 10.5371 12.3215 10.5371H4.32221Z" fill="black"/>
</svg>
