<svg width="25" height="25" viewBox="0 0 25 25" fill="none" xmlns="http://www.w3.org/2000/svg">
<path d="M12.5122 9.53613C11.7823 9.53613 11.0987 9.81934 10.5811 10.3369C10.0659 10.8545 9.7803 11.5381 9.7803 12.2681C9.7803 12.998 10.0659 13.6816 10.5811 14.1992C11.0987 14.7144 11.7823 15 12.5122 15C13.2422 15 13.9258 14.7144 14.4434 14.1992C14.9585 13.6816 15.2442 12.998 15.2442 12.2681C15.2442 11.5381 14.9585 10.8545 14.4434 10.3369C14.1906 10.0822 13.8897 9.8802 13.5582 9.74273C13.2267 9.60526 12.8711 9.53504 12.5122 9.53613ZM22.5781 15.2856L20.9815 13.9209C21.0572 13.457 21.0962 12.9834 21.0962 12.5122C21.0962 12.041 21.0572 11.5649 20.9815 11.1035L22.5781 9.73877C22.6988 9.63551 22.7851 9.49799 22.8257 9.34448C22.8662 9.19097 22.8591 9.02875 22.8052 8.8794L22.7832 8.81592C22.3438 7.58714 21.6854 6.44813 20.8399 5.4541L20.7959 5.40283C20.6933 5.28211 20.5564 5.19533 20.4034 5.15392C20.2505 5.11252 20.0885 5.11844 19.939 5.1709L17.9566 5.87646C17.2241 5.27588 16.4087 4.80225 15.5249 4.47266L15.1416 2.3999C15.1127 2.24376 15.037 2.1001 14.9245 1.98803C14.8119 1.87596 14.668 1.80077 14.5117 1.77246L14.4458 1.76025C13.1763 1.53076 11.8384 1.53076 10.5689 1.76025L10.503 1.77246C10.3467 1.80077 10.2028 1.87596 10.0902 1.98803C9.97774 2.1001 9.90199 2.24376 9.87307 2.3999L9.48733 4.48242C8.61191 4.81464 7.7964 5.28712 7.07278 5.88135L5.07571 5.1709C4.92621 5.11802 4.76416 5.11189 4.6111 5.15332C4.45803 5.19475 4.3212 5.28177 4.21878 5.40283L4.17483 5.4541C3.33082 6.44919 2.67256 7.58791 2.23147 8.81592L2.2095 8.8794C2.09964 9.18457 2.18997 9.52637 2.43655 9.73877L4.05276 11.1182C3.97708 11.5771 3.94046 12.0459 3.94046 12.5098C3.94046 12.9785 3.97708 13.4473 4.05276 13.9014L2.44143 15.2808C2.32082 15.384 2.23449 15.5215 2.19393 15.6751C2.15338 15.8286 2.16051 15.9908 2.21438 16.1401L2.23636 16.2036C2.67825 17.4316 3.3301 18.5669 4.17971 19.5654L4.22366 19.6167C4.32633 19.7374 4.46317 19.8242 4.61615 19.8656C4.76912 19.907 4.93105 19.9011 5.08059 19.8486L7.07766 19.1382C7.8052 19.7363 8.61575 20.21 9.49221 20.5371L9.87796 22.6196C9.90688 22.7758 9.98262 22.9194 10.0951 23.0315C10.2076 23.1436 10.3516 23.2188 10.5078 23.2471L10.5738 23.2593C11.8558 23.49 13.1687 23.49 14.4507 23.2593L14.5166 23.2471C14.6729 23.2188 14.8168 23.1436 14.9293 23.0315C15.0418 22.9194 15.1176 22.7758 15.1465 22.6196L15.5298 20.5469C16.4136 20.2148 17.229 19.7437 17.9615 19.1431L19.9439 19.8486C20.0934 19.9015 20.2554 19.9076 20.4085 19.8662C20.5616 19.8248 20.6984 19.7378 20.8008 19.6167L20.8448 19.5654C21.6944 18.562 22.3462 17.4316 22.7881 16.2036L22.8101 16.1401C22.9151 15.8374 22.8247 15.498 22.5781 15.2856ZM12.5122 16.5601C10.1416 16.5601 8.22024 14.6387 8.22024 12.2681C8.22024 9.89746 10.1416 7.97607 12.5122 7.97607C14.8828 7.97607 16.8042 9.89746 16.8042 12.2681C16.8042 14.6387 14.8828 16.5601 12.5122 16.5601Z" fill="black"/>
</svg>
