<svg width="40" height="40" viewBox="0 0 40 40" fill="none" xmlns="http://www.w3.org/2000/svg">
<path  opacity="0.2" d="M9.39334 30.6067C8.00044 29.2138 6.89553 27.5602 6.1417 25.7403C5.38787 23.9204 4.99988 21.9698 4.99988 20C4.99988 18.0302 5.38787 16.0796 6.1417 14.2597C6.89553 12.4398 8.00044 10.7862 9.39334 9.39333M30.6067 9.39333C31.9996 10.7862 33.1045 12.4398 33.8583 14.2597C34.6121 16.0796 35.0001 18.0302 35.0001 20C35.0001 21.9698 34.6121 23.9204 33.8583 25.7403C33.1045 27.5602 31.9996 29.2138 30.6067 30.6067M14.1067 25.8917C12.5444 24.3289 11.6668 22.2097 11.6668 20C11.6668 17.7903 12.5444 15.6711 14.1067 14.1083M25.8933 14.1083C27.4556 15.6711 28.3332 17.7903 28.3332 20C28.3332 22.2097 27.4556 24.3289 25.8933 25.8917M21.6667 20C21.6667 20.442 21.4911 20.866 21.1785 21.1785C20.866 21.4911 20.442 21.6667 20 21.6667C19.558 21.6667 19.1341 21.4911 18.8215 21.1785C18.5089 20.866 18.3333 20.442 18.3333 20C18.3333 19.558 18.5089 19.134 18.8215 18.8215C19.1341 18.5089 19.558 18.3333 20 18.3333C20.442 18.3333 20.866 18.5089 21.1785 18.8215C21.4911 19.134 21.6667 19.558 21.6667 20Z" stroke="white" stroke-width="3" stroke-linecap="round" stroke-linejoin="round"/>
</svg>
