<svg width="16" height="16" viewBox="0 0 16 16" fill="none" xmlns="http://www.w3.org/2000/svg">
<path d="M6.5715 3.42857H9.42864C9.42864 3.04969 9.27813 2.68633 9.01022 2.41842C8.74231 2.15051 8.37895 2 8.00007 2C7.62119 2 7.25783 2.15051 6.98992 2.41842C6.72201 2.68633 6.5715 3.04969 6.5715 3.42857ZM5.71436 3.42857C5.71436 2.82236 5.95517 2.24098 6.38383 1.81233C6.81248 1.38367 7.39386 1.14286 8.00007 1.14286C8.60628 1.14286 9.18766 1.38367 9.61631 1.81233C10.045 2.24098 10.2858 2.82236 10.2858 3.42857H13.8572C13.9709 3.42857 14.0799 3.47372 14.1603 3.5541C14.2406 3.63447 14.2858 3.74348 14.2858 3.85714C14.2858 3.97081 14.2406 4.07982 14.1603 4.16019C14.0799 4.24056 13.9709 4.28571 13.8572 4.28571H13.1086L12.4132 12.6303C12.3626 13.2373 12.0857 13.8032 11.6375 14.2157C11.1892 14.6281 10.6024 14.8571 9.99321 14.8571H6.00693C5.39778 14.8571 4.81089 14.6281 4.36264 14.2157C3.9144 13.8032 3.63752 13.2373 3.58693 12.6303L2.8915 4.28571H2.14293C2.02926 4.28571 1.92025 4.24056 1.83988 4.16019C1.75951 4.07982 1.71436 3.97081 1.71436 3.85714C1.71436 3.74348 1.75951 3.63447 1.83988 3.5541C1.92025 3.47372 2.02926 3.42857 2.14293 3.42857H5.71436ZM4.44121 12.5589C4.47389 12.9517 4.653 13.3178 4.94301 13.5848C5.23302 13.8517 5.61276 13.9999 6.00693 14H9.99321C10.3874 13.9999 10.7671 13.8517 11.0571 13.5848C11.3471 13.3178 11.5262 12.9517 11.5589 12.5589L12.2492 4.28571H3.7515L4.44121 12.5589ZM6.71435 6.28571C6.82802 6.28571 6.93703 6.33087 7.0174 6.41124C7.09777 6.49161 7.14293 6.60062 7.14293 6.71429V11.5714C7.14293 11.6851 7.09777 11.7941 7.0174 11.8745C6.93703 11.9548 6.82802 12 6.71435 12C6.60069 12 6.49168 11.9548 6.41131 11.8745C6.33094 11.7941 6.28578 11.6851 6.28578 11.5714V6.71429C6.28578 6.60062 6.33094 6.49161 6.41131 6.41124C6.49168 6.33087 6.60069 6.28571 6.71435 6.28571ZM9.71435 6.71429C9.71435 6.60062 9.6692 6.49161 9.58883 6.41124C9.50846 6.33087 9.39945 6.28571 9.28578 6.28571C9.17212 6.28571 9.06311 6.33087 8.98274 6.41124C8.90237 6.49161 8.85721 6.60062 8.85721 6.71429V11.5714C8.85721 11.6851 8.90237 11.7941 8.98274 11.8745C9.06311 11.9548 9.17212 12 9.28578 12C9.39945 12 9.50846 11.9548 9.58883 11.8745C9.6692 11.7941 9.71435 11.6851 9.71435 11.5714V6.71429Z" fill="black"/>
</svg>
