<svg width="164" height="90" viewBox="0 0 164 90" fill="none" xmlns="http://www.w3.org/2000/svg">
<path d="M2 73.914L17.0697 59.6049C18.0176 58.7049 19.5599 58.9411 20.195 60.0836L35.1493 86.9879C35.8954 88.3301 37.813 88.3657 38.6083 87.0521L50 68.2366C54.3271 58.9145 65.2921 39.1227 74.9756 33.4712C75.2627 33.3036 75.5859 33.2258 75.9184 33.2258H91.1626C91.8961 33.2258 92.5688 32.8245 92.927 32.1844C98.9101 21.4926 112.483 2 123.412 2C124.954 2 128.923 2.91481 132.634 6.54338C132.76 6.66655 132.868 6.80869 132.955 6.96169L162 57.828" stroke="#00499B" stroke-width="3" stroke-linecap="round"/>
</svg>
