<svg width="159" height="72" viewBox="0 0 159 72" fill="none" xmlns="http://www.w3.org/2000/svg">
<rect x="20" y="1" width="120" height="5" rx="2.5" fill="#F5BE2D"/>
<path d="M2.30078 3.42969C2.66797 3.42969 2.99089 3.49609 3.26953 3.62891C3.55078 3.75911 3.76953 3.95182 3.92578 4.20703C4.08203 4.45964 4.16016 4.76953 4.16016 5.13672C4.16016 5.53776 4.07552 5.88411 3.90625 6.17578C3.73698 6.46484 3.48828 6.6875 3.16016 6.84375C2.83203 7 2.43229 7.07812 1.96094 7.07812C1.66146 7.07812 1.38151 7.05208 1.12109 7C0.863281 6.94792 0.640625 6.86979 0.453125 6.76562V5.9375C0.648438 6.04688 0.882812 6.13672 1.15625 6.20703C1.42969 6.27474 1.69141 6.30859 1.94141 6.30859C2.20703 6.30859 2.4349 6.26953 2.625 6.19141C2.8151 6.11328 2.96094 5.99349 3.0625 5.83203C3.16667 5.67057 3.21875 5.46615 3.21875 5.21875C3.21875 4.89062 3.11328 4.63802 2.90234 4.46094C2.69401 4.28125 2.36719 4.19141 1.92188 4.19141C1.76562 4.19141 1.59896 4.20573 1.42188 4.23438C1.2474 4.26042 1.10156 4.28906 0.984375 4.32031L0.582031 4.08203L0.796875 1.28906H3.76562V2.09766H1.60547L1.48047 3.51953C1.57422 3.4987 1.6862 3.47917 1.81641 3.46094C1.94661 3.4401 2.10807 3.42969 2.30078 3.42969Z" fill="white"/>
<path d="M11 5.75667L13.06 7L12.5133 4.65667L14.3333 3.08L11.9366 2.87667L11 0.666672L10.0633 2.87667L7.66663 3.08L9.48663 4.65667L8.93996 7L11 5.75667Z" fill="#FFC018"/>
<path d="M148.059 7H147.137V3.32422C147.137 3.20182 147.138 3.07943 147.141 2.95703C147.143 2.83464 147.146 2.71484 147.148 2.59766C147.154 2.48047 147.16 2.36849 147.168 2.26172C147.113 2.32161 147.046 2.38672 146.965 2.45703C146.887 2.52734 146.803 2.60026 146.715 2.67578L146.059 3.19922L145.598 2.61719L147.293 1.28906H148.059V7ZM153.805 7H149.938V6.30859L151.418 4.80859C151.704 4.51693 151.94 4.26562 152.125 4.05469C152.31 3.84115 152.447 3.63932 152.535 3.44922C152.626 3.25911 152.672 3.05208 152.672 2.82812C152.672 2.55208 152.592 2.34375 152.434 2.20312C152.275 2.0599 152.065 1.98828 151.805 1.98828C151.557 1.98828 151.328 2.03776 151.117 2.13672C150.909 2.23307 150.693 2.37109 150.469 2.55078L149.965 1.94531C150.124 1.8099 150.293 1.6862 150.473 1.57422C150.655 1.46224 150.858 1.3737 151.082 1.30859C151.306 1.24089 151.561 1.20703 151.848 1.20703C152.21 1.20703 152.522 1.27214 152.785 1.40234C153.048 1.52995 153.25 1.70833 153.391 1.9375C153.534 2.16667 153.605 2.43359 153.605 2.73828C153.605 3.04557 153.544 3.32943 153.422 3.58984C153.299 3.85026 153.125 4.10807 152.898 4.36328C152.672 4.61589 152.402 4.89062 152.09 5.1875L151.102 6.15234V6.19531H153.805V7ZM158.383 4.14062C158.383 4.60156 158.346 5.01432 158.273 5.37891C158.203 5.74089 158.091 6.04818 157.938 6.30078C157.784 6.55339 157.583 6.74609 157.336 6.87891C157.089 7.01172 156.789 7.07812 156.438 7.07812C155.997 7.07812 155.634 6.96224 155.348 6.73047C155.061 6.49609 154.849 6.16016 154.711 5.72266C154.573 5.28255 154.504 4.75521 154.504 4.14062C154.504 3.52604 154.566 3 154.691 2.5625C154.819 2.1224 155.025 1.78516 155.309 1.55078C155.592 1.31641 155.969 1.19922 156.438 1.19922C156.88 1.19922 157.245 1.31641 157.531 1.55078C157.82 1.78255 158.034 2.11849 158.172 2.55859C158.312 2.99609 158.383 3.52344 158.383 4.14062ZM155.43 4.14062C155.43 4.6224 155.461 5.02474 155.523 5.34766C155.589 5.67057 155.695 5.91276 155.844 6.07422C155.992 6.23307 156.19 6.3125 156.438 6.3125C156.685 6.3125 156.883 6.23307 157.031 6.07422C157.18 5.91536 157.286 5.67448 157.352 5.35156C157.419 5.02865 157.453 4.625 157.453 4.14062C157.453 3.66146 157.421 3.26042 157.355 2.9375C157.29 2.61458 157.184 2.3724 157.035 2.21094C156.887 2.04688 156.688 1.96484 156.438 1.96484C156.188 1.96484 155.988 2.04688 155.84 2.21094C155.694 2.3724 155.589 2.61458 155.523 2.9375C155.461 3.26042 155.43 3.66146 155.43 4.14062Z" fill="white"/>
<rect x="20" y="17" width="100" height="5" rx="2.5" fill="#F5BE2D"/>
<path d="M4.43359 21.7461H3.66016V23H2.75391V21.7461H0.15625V21.0508L2.76562 17.2734H3.66016V20.9844H4.43359V21.7461ZM2.75391 20.9844V19.5664C2.75391 19.4492 2.75521 19.3307 2.75781 19.2109C2.76302 19.0885 2.76823 18.9714 2.77344 18.8594C2.77865 18.7474 2.78385 18.6445 2.78906 18.5508C2.79427 18.4544 2.79818 18.375 2.80078 18.3125H2.76953C2.72005 18.4167 2.66536 18.5234 2.60547 18.6328C2.54557 18.7396 2.48177 18.8438 2.41406 18.9453L1.00781 20.9844H2.75391Z" fill="white"/>
<path d="M11 21.7567L13.06 23L12.5133 20.6567L14.3333 19.08L11.9366 18.8767L11 16.6667L10.0633 18.8767L7.66663 19.08L9.48663 20.6567L8.93996 23L11 21.7567Z" fill="#FFC018"/>
<path d="M147.285 17.2109C147.616 17.2109 147.914 17.263 148.18 17.3672C148.445 17.4688 148.656 17.6211 148.812 17.8242C148.969 18.0273 149.047 18.2786 149.047 18.5781C149.047 18.8099 148.999 19.0117 148.902 19.1836C148.809 19.3555 148.681 19.5065 148.52 19.6367C148.358 19.7643 148.177 19.8776 147.977 19.9766C148.201 20.0859 148.406 20.2122 148.594 20.3555C148.784 20.4961 148.936 20.6615 149.051 20.8516C149.168 21.0417 149.227 21.2643 149.227 21.5195C149.227 21.8398 149.145 22.1172 148.98 22.3516C148.819 22.5833 148.594 22.763 148.305 22.8906C148.016 23.0156 147.678 23.0781 147.293 23.0781C146.879 23.0781 146.526 23.0169 146.234 22.8945C145.943 22.7721 145.721 22.5977 145.57 22.3711C145.419 22.1419 145.344 21.8685 145.344 21.5508C145.344 21.2878 145.396 21.0599 145.5 20.8672C145.604 20.6745 145.743 20.5078 145.918 20.3672C146.095 20.2266 146.289 20.1081 146.5 20.0117C146.32 19.9049 146.156 19.7852 146.008 19.6523C145.859 19.5169 145.741 19.362 145.652 19.1875C145.566 19.0104 145.523 18.806 145.523 18.5742C145.523 18.2773 145.603 18.0286 145.762 17.8281C145.921 17.625 146.133 17.4714 146.398 17.3672C146.667 17.263 146.962 17.2109 147.285 17.2109ZM146.219 21.5156C146.219 21.7656 146.307 21.9714 146.484 22.1328C146.661 22.2943 146.926 22.375 147.277 22.375C147.626 22.375 147.892 22.2956 148.074 22.1367C148.257 21.9779 148.348 21.7682 148.348 21.5078C148.348 21.3411 148.301 21.194 148.207 21.0664C148.116 20.9388 147.992 20.8255 147.836 20.7266C147.682 20.625 147.512 20.5312 147.324 20.4453L147.199 20.3945C146.996 20.4805 146.822 20.5781 146.676 20.6875C146.53 20.7943 146.417 20.9154 146.336 21.0508C146.258 21.1862 146.219 21.3411 146.219 21.5156ZM147.277 17.918C147.025 17.918 146.816 17.9805 146.652 18.1055C146.491 18.2279 146.41 18.4049 146.41 18.6367C146.41 18.8008 146.449 18.9414 146.527 19.0586C146.608 19.1758 146.716 19.2773 146.852 19.3633C146.987 19.4466 147.137 19.5247 147.301 19.5977C147.46 19.5273 147.603 19.4505 147.73 19.3672C147.861 19.2812 147.964 19.1797 148.039 19.0625C148.117 18.9427 148.156 18.7995 148.156 18.6328C148.156 18.4036 148.074 18.2279 147.91 18.1055C147.749 17.9805 147.538 17.918 147.277 17.918ZM153.805 20.1406C153.805 20.6016 153.768 21.0143 153.695 21.3789C153.625 21.7409 153.513 22.0482 153.359 22.3008C153.206 22.5534 153.005 22.7461 152.758 22.8789C152.51 23.0117 152.211 23.0781 151.859 23.0781C151.419 23.0781 151.056 22.9622 150.77 22.7305C150.483 22.4961 150.271 22.1602 150.133 21.7227C149.995 21.2826 149.926 20.7552 149.926 20.1406C149.926 19.526 149.988 19 150.113 18.5625C150.241 18.1224 150.447 17.7852 150.73 17.5508C151.014 17.3164 151.391 17.1992 151.859 17.1992C152.302 17.1992 152.667 17.3164 152.953 17.5508C153.242 17.7826 153.456 18.1185 153.594 18.5586C153.734 18.9961 153.805 19.5234 153.805 20.1406ZM150.852 20.1406C150.852 20.6224 150.883 21.0247 150.945 21.3477C151.01 21.6706 151.117 21.9128 151.266 22.0742C151.414 22.2331 151.612 22.3125 151.859 22.3125C152.107 22.3125 152.305 22.2331 152.453 22.0742C152.602 21.9154 152.708 21.6745 152.773 21.3516C152.841 21.0286 152.875 20.625 152.875 20.1406C152.875 19.6615 152.842 19.2604 152.777 18.9375C152.712 18.6146 152.605 18.3724 152.457 18.2109C152.309 18.0469 152.109 17.9648 151.859 17.9648C151.609 17.9648 151.41 18.0469 151.262 18.2109C151.116 18.3724 151.01 18.6146 150.945 18.9375C150.883 19.2604 150.852 19.6615 150.852 20.1406Z" fill="white"/>
<rect x="20" y="33" width="40" height="5" rx="2.5" fill="#F5BE2D"/>
<path d="M4.00781 34.5938C4.00781 34.8516 3.95573 35.0755 3.85156 35.2656C3.7474 35.4557 3.60417 35.612 3.42188 35.7344C3.24219 35.8542 3.03385 35.9401 2.79688 35.9922V36.0195C3.2526 36.0768 3.59635 36.2201 3.82812 36.4492C4.0625 36.6784 4.17969 36.9818 4.17969 37.3594C4.17969 37.6901 4.10026 37.9857 3.94141 38.2461C3.78255 38.5039 3.53906 38.707 3.21094 38.8555C2.88281 39.0039 2.46094 39.0781 1.94531 39.0781C1.63542 39.0781 1.34766 39.0534 1.08203 39.0039C0.81901 38.9544 0.56901 38.875 0.332031 38.7656V37.9492C0.574219 38.069 0.832031 38.1615 1.10547 38.2266C1.37891 38.2917 1.63802 38.3242 1.88281 38.3242C2.35938 38.3242 2.69922 38.2357 2.90234 38.0586C3.10547 37.8789 3.20703 37.6315 3.20703 37.3164C3.20703 37.1133 3.15365 36.9466 3.04688 36.8164C2.94271 36.6862 2.77995 36.5885 2.55859 36.5234C2.33984 36.4583 2.05729 36.4258 1.71094 36.4258H1.20703V35.6875H1.71484C2.04557 35.6875 2.3112 35.6484 2.51172 35.5703C2.71224 35.4896 2.85677 35.3789 2.94531 35.2383C3.03646 35.0977 3.08203 34.9336 3.08203 34.7461C3.08203 34.5013 3.0026 34.3112 2.84375 34.1758C2.6849 34.0378 2.44922 33.9688 2.13672 33.9688C1.94401 33.9688 1.76823 33.9909 1.60938 34.0352C1.45312 34.0794 1.30859 34.1354 1.17578 34.2031C1.04297 34.2708 0.916667 34.3438 0.796875 34.4219L0.355469 33.7852C0.571615 33.6237 0.829427 33.487 1.12891 33.375C1.42839 33.263 1.77734 33.207 2.17578 33.207C2.76172 33.207 3.21354 33.3333 3.53125 33.5859C3.84896 33.8359 4.00781 34.1719 4.00781 34.5938Z" fill="white"/>
<path d="M11 37.7567L13.06 39L12.5133 36.6567L14.3333 35.08L11.9366 34.8767L11 32.6667L10.0633 34.8767L7.66663 35.08L9.48663 36.6567L8.93996 39L11 37.7567Z" fill="#FFC018"/>
<path d="M149.008 34.5938C149.008 34.8516 148.956 35.0755 148.852 35.2656C148.747 35.4557 148.604 35.612 148.422 35.7344C148.242 35.8542 148.034 35.9401 147.797 35.9922V36.0195C148.253 36.0768 148.596 36.2201 148.828 36.4492C149.062 36.6784 149.18 36.9818 149.18 37.3594C149.18 37.6901 149.1 37.9857 148.941 38.2461C148.783 38.5039 148.539 38.707 148.211 38.8555C147.883 39.0039 147.461 39.0781 146.945 39.0781C146.635 39.0781 146.348 39.0534 146.082 39.0039C145.819 38.9544 145.569 38.875 145.332 38.7656V37.9492C145.574 38.069 145.832 38.1615 146.105 38.2266C146.379 38.2917 146.638 38.3242 146.883 38.3242C147.359 38.3242 147.699 38.2357 147.902 38.0586C148.105 37.8789 148.207 37.6315 148.207 37.3164C148.207 37.1133 148.154 36.9466 148.047 36.8164C147.943 36.6862 147.78 36.5885 147.559 36.5234C147.34 36.4583 147.057 36.4258 146.711 36.4258H146.207V35.6875H146.715C147.046 35.6875 147.311 35.6484 147.512 35.5703C147.712 35.4896 147.857 35.3789 147.945 35.2383C148.036 35.0977 148.082 34.9336 148.082 34.7461C148.082 34.5013 148.003 34.3112 147.844 34.1758C147.685 34.0378 147.449 33.9688 147.137 33.9688C146.944 33.9688 146.768 33.9909 146.609 34.0352C146.453 34.0794 146.309 34.1354 146.176 34.2031C146.043 34.2708 145.917 34.3438 145.797 34.4219L145.355 33.7852C145.572 33.6237 145.829 33.487 146.129 33.375C146.428 33.263 146.777 33.207 147.176 33.207C147.762 33.207 148.214 33.3333 148.531 33.5859C148.849 33.8359 149.008 34.1719 149.008 34.5938ZM153.805 36.1406C153.805 36.6016 153.768 37.0143 153.695 37.3789C153.625 37.7409 153.513 38.0482 153.359 38.3008C153.206 38.5534 153.005 38.7461 152.758 38.8789C152.51 39.0117 152.211 39.0781 151.859 39.0781C151.419 39.0781 151.056 38.9622 150.77 38.7305C150.483 38.4961 150.271 38.1602 150.133 37.7227C149.995 37.2826 149.926 36.7552 149.926 36.1406C149.926 35.526 149.988 35 150.113 34.5625C150.241 34.1224 150.447 33.7852 150.73 33.5508C151.014 33.3164 151.391 33.1992 151.859 33.1992C152.302 33.1992 152.667 33.3164 152.953 33.5508C153.242 33.7826 153.456 34.1185 153.594 34.5586C153.734 34.9961 153.805 35.5234 153.805 36.1406ZM150.852 36.1406C150.852 36.6224 150.883 37.0247 150.945 37.3477C151.01 37.6706 151.117 37.9128 151.266 38.0742C151.414 38.2331 151.612 38.3125 151.859 38.3125C152.107 38.3125 152.305 38.2331 152.453 38.0742C152.602 37.9154 152.708 37.6745 152.773 37.3516C152.841 37.0286 152.875 36.625 152.875 36.1406C152.875 35.6615 152.842 35.2604 152.777 34.9375C152.712 34.6146 152.605 34.3724 152.457 34.2109C152.309 34.0469 152.109 33.9648 151.859 33.9648C151.609 33.9648 151.41 34.0469 151.262 34.2109C151.116 34.3724 151.01 34.6146 150.945 34.9375C150.883 35.2604 150.852 35.6615 150.852 36.1406Z" fill="white"/>
<rect x="20" y="49" width="25" height="5" rx="2.5" fill="#F5BE2D"/>
<path d="M4.22656 55H0.359375V54.3086L1.83984 52.8086C2.1263 52.5169 2.36198 52.2656 2.54688 52.0547C2.73177 51.8411 2.86849 51.6393 2.95703 51.4492C3.04818 51.2591 3.09375 51.0521 3.09375 50.8281C3.09375 50.5521 3.01432 50.3438 2.85547 50.2031C2.69661 50.0599 2.48698 49.9883 2.22656 49.9883C1.97917 49.9883 1.75 50.0378 1.53906 50.1367C1.33073 50.2331 1.11458 50.3711 0.890625 50.5508L0.386719 49.9453C0.545573 49.8099 0.714844 49.6862 0.894531 49.5742C1.07682 49.4622 1.27995 49.3737 1.50391 49.3086C1.72786 49.2409 1.98307 49.207 2.26953 49.207C2.63151 49.207 2.94401 49.2721 3.20703 49.4023C3.47005 49.5299 3.67188 49.7083 3.8125 49.9375C3.95573 50.1667 4.02734 50.4336 4.02734 50.7383C4.02734 51.0456 3.96615 51.3294 3.84375 51.5898C3.72135 51.8503 3.54688 52.1081 3.32031 52.3633C3.09375 52.6159 2.82422 52.8906 2.51172 53.1875L1.52344 54.1523V54.1953H4.22656V55Z" fill="white"/>
<path d="M11 53.7567L13.06 55L12.5133 52.6567L14.3333 51.08L11.9366 50.8767L11 48.6667L10.0633 50.8767L7.66663 51.08L9.48663 52.6567L8.93996 55L11 53.7567Z" fill="#FFC018"/>
<path d="M148.059 55H147.137V51.3242C147.137 51.2018 147.138 51.0794 147.141 50.957C147.143 50.8346 147.146 50.7148 147.148 50.5977C147.154 50.4805 147.16 50.3685 147.168 50.2617C147.113 50.3216 147.046 50.3867 146.965 50.457C146.887 50.5273 146.803 50.6003 146.715 50.6758L146.059 51.1992L145.598 50.6172L147.293 49.2891H148.059V55ZM153.805 55H149.938V54.3086L151.418 52.8086C151.704 52.5169 151.94 52.2656 152.125 52.0547C152.31 51.8411 152.447 51.6393 152.535 51.4492C152.626 51.2591 152.672 51.0521 152.672 50.8281C152.672 50.5521 152.592 50.3438 152.434 50.2031C152.275 50.0599 152.065 49.9883 151.805 49.9883C151.557 49.9883 151.328 50.0378 151.117 50.1367C150.909 50.2331 150.693 50.3711 150.469 50.5508L149.965 49.9453C150.124 49.8099 150.293 49.6862 150.473 49.5742C150.655 49.4622 150.858 49.3737 151.082 49.3086C151.306 49.2409 151.561 49.207 151.848 49.207C152.21 49.207 152.522 49.2721 152.785 49.4023C153.048 49.5299 153.25 49.7083 153.391 49.9375C153.534 50.1667 153.605 50.4336 153.605 50.7383C153.605 51.0456 153.544 51.3294 153.422 51.5898C153.299 51.8503 153.125 52.1081 152.898 52.3633C152.672 52.6159 152.402 52.8906 152.09 53.1875L151.102 54.1523V54.1953H153.805V55Z" fill="white"/>
<rect x="20" y="65" width="20" height="5" rx="2.5" fill="#F5BE2D"/>
<path d="M3.05859 71H2.13672V67.3242C2.13672 67.2018 2.13802 67.0794 2.14062 66.957C2.14323 66.8346 2.14583 66.7148 2.14844 66.5977C2.15365 66.4805 2.16016 66.3685 2.16797 66.2617C2.11328 66.3216 2.04557 66.3867 1.96484 66.457C1.88672 66.5273 1.80339 66.6003 1.71484 66.6758L1.05859 67.1992L0.597656 66.6172L2.29297 65.2891H3.05859V71Z" fill="white"/>
<path d="M11 69.7567L13.06 71L12.5133 68.6567L14.3333 67.08L11.9366 66.8767L11 64.6667L10.0633 66.8767L7.66663 67.08L9.48663 68.6567L8.93996 71L11 69.7567Z" fill="#FFC018"/>
<path d="M147.285 65.2109C147.616 65.2109 147.914 65.263 148.18 65.3672C148.445 65.4688 148.656 65.6211 148.812 65.8242C148.969 66.0273 149.047 66.2786 149.047 66.5781C149.047 66.8099 148.999 67.0117 148.902 67.1836C148.809 67.3555 148.681 67.5065 148.52 67.6367C148.358 67.7643 148.177 67.8776 147.977 67.9766C148.201 68.0859 148.406 68.2122 148.594 68.3555C148.784 68.4961 148.936 68.6615 149.051 68.8516C149.168 69.0417 149.227 69.2643 149.227 69.5195C149.227 69.8398 149.145 70.1172 148.98 70.3516C148.819 70.5833 148.594 70.763 148.305 70.8906C148.016 71.0156 147.678 71.0781 147.293 71.0781C146.879 71.0781 146.526 71.0169 146.234 70.8945C145.943 70.7721 145.721 70.5977 145.57 70.3711C145.419 70.1419 145.344 69.8685 145.344 69.5508C145.344 69.2878 145.396 69.0599 145.5 68.8672C145.604 68.6745 145.743 68.5078 145.918 68.3672C146.095 68.2266 146.289 68.1081 146.5 68.0117C146.32 67.9049 146.156 67.7852 146.008 67.6523C145.859 67.5169 145.741 67.362 145.652 67.1875C145.566 67.0104 145.523 66.806 145.523 66.5742C145.523 66.2773 145.603 66.0286 145.762 65.8281C145.921 65.625 146.133 65.4714 146.398 65.3672C146.667 65.263 146.962 65.2109 147.285 65.2109ZM146.219 69.5156C146.219 69.7656 146.307 69.9714 146.484 70.1328C146.661 70.2943 146.926 70.375 147.277 70.375C147.626 70.375 147.892 70.2956 148.074 70.1367C148.257 69.9779 148.348 69.7682 148.348 69.5078C148.348 69.3411 148.301 69.194 148.207 69.0664C148.116 68.9388 147.992 68.8255 147.836 68.7266C147.682 68.625 147.512 68.5312 147.324 68.4453L147.199 68.3945C146.996 68.4805 146.822 68.5781 146.676 68.6875C146.53 68.7943 146.417 68.9154 146.336 69.0508C146.258 69.1862 146.219 69.3411 146.219 69.5156ZM147.277 65.918C147.025 65.918 146.816 65.9805 146.652 66.1055C146.491 66.2279 146.41 66.4049 146.41 66.6367C146.41 66.8008 146.449 66.9414 146.527 67.0586C146.608 67.1758 146.716 67.2773 146.852 67.3633C146.987 67.4466 147.137 67.5247 147.301 67.5977C147.46 67.5273 147.603 67.4505 147.73 67.3672C147.861 67.2812 147.964 67.1797 148.039 67.0625C148.117 66.9427 148.156 66.7995 148.156 66.6328C148.156 66.4036 148.074 66.2279 147.91 66.1055C147.749 65.9805 147.538 65.918 147.277 65.918Z" fill="white"/>
</svg>
