<svg width="110" height="110" viewBox="0 0 110 110" fill="none" xmlns="http://www.w3.org/2000/svg">
<circle cx="55" cy="55" r="55" fill="#8B7FF8"/>
<path d="M110 55C110 44.5292 107.011 34.2759 101.384 25.4453C95.7579 16.6146 87.7274 9.57363 78.237 5.1498C68.7466 0.725966 58.1905 -0.896862 47.8095 0.47205C37.4286 1.84096 27.6541 6.14473 19.6348 12.8775L29.5553 24.6935C35.325 19.8494 42.3576 16.7529 49.8266 15.768C57.2955 14.7831 64.8904 15.9507 71.7186 19.1336C78.5469 22.3164 84.3246 27.3823 88.3729 33.7358C92.4211 40.0893 94.5716 47.4664 94.5716 55H110Z" fill="#61E8F5"/>
<circle cx="55" cy="55" r="40" fill="#7000FF"/>
<path d="M46.2891 52.0244C46.2891 52.6162 46.166 53.1289 45.9199 53.5625C45.6738 53.9961 45.3398 54.3506 44.918 54.626C44.502 54.9014 44.0332 55.1035 43.5117 55.2324V55.2852C44.543 55.4141 45.3252 55.7305 45.8584 56.2344C46.3975 56.7383 46.667 57.4121 46.667 58.2559C46.667 59.0059 46.4824 59.6768 46.1133 60.2686C45.75 60.8604 45.1875 61.3262 44.4258 61.666C43.6641 62.0059 42.6826 62.1758 41.4814 62.1758C40.7725 62.1758 40.1104 62.1172 39.4951 62C38.8857 61.8887 38.3115 61.7158 37.7725 61.4814V59.1699C38.3232 59.4512 38.9004 59.665 39.5039 59.8115C40.1074 59.9521 40.6699 60.0225 41.1914 60.0225C42.1641 60.0225 42.8438 59.8555 43.2305 59.5215C43.623 59.1816 43.8193 58.707 43.8193 58.0977C43.8193 57.7402 43.7285 57.4385 43.5469 57.1924C43.3652 56.9463 43.0488 56.7588 42.5977 56.6299C42.1523 56.501 41.5283 56.4365 40.7256 56.4365H39.75V54.3535H40.7432C41.5342 54.3535 42.1348 54.2803 42.5449 54.1338C42.9609 53.9814 43.2422 53.7764 43.3887 53.5186C43.541 53.2549 43.6172 52.9561 43.6172 52.6221C43.6172 52.165 43.4766 51.8076 43.1953 51.5498C42.9141 51.292 42.4453 51.1631 41.7891 51.1631C41.3789 51.1631 41.0039 51.2158 40.6641 51.3213C40.3301 51.4209 40.0283 51.5439 39.7588 51.6904C39.4893 51.8311 39.252 51.9688 39.0469 52.1035L37.79 50.2314C38.2939 49.8682 38.8828 49.5664 39.5566 49.3262C40.2363 49.0859 41.0449 48.9658 41.9824 48.9658C43.3066 48.9658 44.3555 49.2324 45.1289 49.7656C45.9023 50.2988 46.2891 51.0518 46.2891 52.0244ZM57.0205 55.5752C57.0205 56.6123 56.9385 57.5381 56.7744 58.3525C56.6162 59.167 56.3584 59.8584 56.001 60.4268C55.6494 60.9951 55.1865 61.4287 54.6123 61.7275C54.0381 62.0264 53.3408 62.1758 52.5205 62.1758C51.4893 62.1758 50.6426 61.915 49.9805 61.3936C49.3184 60.8662 48.8291 60.1104 48.5127 59.126C48.1963 58.1357 48.0381 56.9521 48.0381 55.5752C48.0381 54.1865 48.1816 53 48.4688 52.0156C48.7617 51.0254 49.2363 50.2666 49.8926 49.7393C50.5488 49.2119 51.4248 48.9482 52.5205 48.9482C53.5459 48.9482 54.3896 49.2119 55.0518 49.7393C55.7197 50.2607 56.2148 51.0166 56.5371 52.0068C56.8594 52.9912 57.0205 54.1807 57.0205 55.5752ZM50.7363 55.5752C50.7363 56.5537 50.7891 57.3711 50.8945 58.0273C51.0059 58.6777 51.1904 59.167 51.4482 59.4951C51.7061 59.8232 52.0635 59.9873 52.5205 59.9873C52.9717 59.9873 53.3262 59.8262 53.584 59.5039C53.8477 59.1758 54.0352 58.6865 54.1465 58.0361C54.2578 57.3799 54.3135 56.5596 54.3135 55.5752C54.3135 54.5967 54.2578 53.7793 54.1465 53.123C54.0352 52.4668 53.8477 51.9746 53.584 51.6465C53.3262 51.3125 52.9717 51.1455 52.5205 51.1455C52.0635 51.1455 51.7061 51.3125 51.4482 51.6465C51.1904 51.9746 51.0059 52.4668 50.8945 53.123C50.7891 53.7793 50.7363 54.5967 50.7363 55.5752ZM61.2744 48.9658C62.2822 48.9658 63.0469 49.3174 63.5684 50.0205C64.0898 50.7236 64.3506 51.7109 64.3506 52.9824C64.3506 54.2539 64.1045 55.2471 63.6123 55.9619C63.1201 56.6768 62.3408 57.0342 61.2744 57.0342C60.2842 57.0342 59.5312 56.6768 59.0156 55.9619C58.5 55.2471 58.2422 54.2539 58.2422 52.9824C58.2422 51.7109 58.4824 50.7236 58.9629 50.0205C59.4492 49.3174 60.2197 48.9658 61.2744 48.9658ZM61.292 50.8027C61.0049 50.8027 60.7939 50.9844 60.6592 51.3477C60.5244 51.7109 60.457 52.2617 60.457 53C60.457 53.7383 60.5244 54.292 60.6592 54.6611C60.7939 55.0303 61.0049 55.2148 61.292 55.2148C61.5791 55.2148 61.79 55.0332 61.9248 54.6699C62.0654 54.3008 62.1357 53.7441 62.1357 53C62.1357 52.2617 62.0654 51.7109 61.9248 51.3477C61.79 50.9844 61.5791 50.8027 61.292 50.8027ZM70.3975 49.1504L63.2695 62H61.1602L68.2881 49.1504H70.3975ZM70.2744 54.0986C71.2822 54.0986 72.0469 54.4502 72.5684 55.1533C73.0898 55.8564 73.3506 56.8438 73.3506 58.1152C73.3506 59.3809 73.1045 60.3711 72.6123 61.0859C72.1201 61.8008 71.3408 62.1582 70.2744 62.1582C69.2842 62.1582 68.5312 61.8008 68.0156 61.0859C67.5 60.3711 67.2422 59.3809 67.2422 58.1152C67.2422 56.8438 67.4824 55.8564 67.9629 55.1533C68.4492 54.4502 69.2197 54.0986 70.2744 54.0986ZM70.292 55.9355C70.0049 55.9355 69.7939 56.1172 69.6592 56.4805C69.5244 56.8438 69.457 57.3945 69.457 58.1328C69.457 58.8711 69.5244 59.4248 69.6592 59.7939C69.7939 60.1631 70.0049 60.3477 70.292 60.3477C70.5791 60.3477 70.79 60.166 70.9248 59.8027C71.0654 59.4336 71.1357 58.877 71.1357 58.1328C71.1357 57.3945 71.0654 56.8438 70.9248 56.4805C70.79 56.1172 70.5791 55.9355 70.292 55.9355Z" fill="white"/>
</svg>
